<svg width="36" height="36" xmlns="http://www.w3.org/2000/svg">

 <g>
  <title>background</title>
  <rect fill="none" id="canvas_background" height="402" width="582" y="-1" x="-1"/>
 </g>
 <g>
  <title>Layer 1</title>
  <path stroke="#ff0000" id="svg_1" fill="black" d="m22.0979,9.00001c-1.3029,-0.00001 -2.1428,0.15521 -3.1055,0.62646c-0.3565,0.17447 -0.6909,0.38463 -1.0015,0.62973c-0.2986,-0.2314 -0.6196,-0.43187 -0.9613,-0.60088c-0.9814,-0.48542 -1.8644,-0.65532 -3.1205,-0.65532c-3.3643,0 -5.80912,2.7875 -5.80912,6.4079c0,2.7341 1.52444,5.3752 4.36392,7.929c1.4905,1.3405 3.3935,2.6671 4.7563,3.3728l0.7798,0.4038l0.7797,-0.4038c1.3629,-0.7057 3.2659,-2.0323 4.7563,-3.3728c1.4904,-1.3405 4.364,-5.1949 4.364,-7.929c0,-3.582 -2.4679,-6.39408 -5.8021,-6.40789zm4.0021,6.40789c0,2.142 -2.21112,5.56328 -3.7676,6.5907c-1.55648,1.02742 -3.1093,2.4463 -4.3324,3.0878c-1.223,-0.6415 -2.9719,-1.8643 -4.3323,-3.0878c-2.4952,-2.2442 -3.76768,-4.4487 -3.76768,-6.5907c0,-2.6749 1.69528,-4.6079 4.00908,-4.6079c0.9988,0 1.6142,0.1185 2.3225,0.4688c0.4184,0.2069 0.7882,0.4802 1.1083,0.8216l0.6622,0.7065l0.6562,-0.7121c0.3273,-0.3551 0.7025,-0.6346 1.1254,-0.8416c0.6876,-0.3365 1.2646,-0.4432 2.3105,-0.4432c2.2852,0.0095 4.0058,1.9701 4.0058,4.6079z" clip-rule="evenodd" fill-rule="evenodd"/>
 </g>
</svg>